HIERARCHY
ROOT joint_Root
{
	OFFSET 0.0 0.0 0.0
	CHANNELS 6 Xposition Yposition Zposition Zrotation Xrotation Yrotation 
	JOINT Hips
	{
		OFFSET -17.1583 93.1646 452.98
		CHANNELS 6 Xposition Yposition Zposition Zrotation Xrotation Yrotation 
		JOINT Spine
		{
			OFFSET 15.7357 0.0 0.0
			CHANNELS 6 Xposition Yposition Zposition Zrotation Xrotation Yrotation 
			JOINT Chest
			{
				OFFSET 8.98455 -0.406207 0.0
				CHANNELS 6 Xposition Yposition Zposition Zrotation Xrotation Yrotation 
				JOINT Neck
				{
					OFFSET 16.3773 0.0 0.0
					CHANNELS 6 Xposition Yposition Zposition Zrotation Xrotation Yrotation 
					JOINT Head
					{
						OFFSET 6.45672 0.0 0.0
						CHANNELS 6 Xposition Yposition Zposition Zrotation Xrotation Yrotation 
						End Site
						{
							OFFSET 0.0 0.0 0.0
						}
					}
				}
				JOINT Shoulder_L
				{
					OFFSET 12.9942 -0.242716 4.98039
					CHANNELS 6 Xposition Yposition Zposition Zrotation Xrotation Yrotation 
					JOINT UpperArm_L
					{
						OFFSET 5.34809 0.0 0.0
						CHANNELS 6 Xposition Yposition Zposition Zrotation Xrotation Yrotation 
						JOINT LowerArm_L
						{
							OFFSET 24.3286 1.87007e-05 0.0
							CHANNELS 6 Xposition Yposition Zposition Zrotation Xrotation Yrotation 
							JOINT Hand_L
							{
								OFFSET 22.2916 0.0 0.0
								CHANNELS 6 Xposition Yposition Zposition Zrotation Xrotation Yrotation 
								End Site
								{
									OFFSET 0.0 0.0 0.0
								}
							}
						}
					}
				}
				JOINT Shoulder_R
				{
					OFFSET 12.9945 -0.242716 -4.98039
					CHANNELS 6 Xposition Yposition Zposition Zrotation Xrotation Yrotation 
					JOINT UpperArm_R
					{
						OFFSET -5.34813 0.0 0.0
						CHANNELS 6 Xposition Yposition Zposition Zrotation Xrotation Yrotation 
						JOINT LowerArm_R
						{
							OFFSET -24.3289 0.000322201 0.0
							CHANNELS 6 Xposition Yposition Zposition Zrotation Xrotation Yrotation 
							JOINT Hand_R
							{
								OFFSET -22.2915 -0.000108084 0.0
								CHANNELS 6 Xposition Yposition Zposition Zrotation Xrotation Yrotation 
								End Site
								{
									OFFSET 0.0 0.0 0.0
								}
							}
						}
					}
				}
			}
		}
		JOINT UpperLeg_L
		{
			OFFSET -2.19248 -6.46944 0.0
			CHANNELS 6 Xposition Yposition Zposition Zrotation Xrotation Yrotation 
			JOINT LowerLeg_L
			{
				OFFSET 39.0811 0.0 -1.23785e-05
				CHANNELS 6 Xposition Yposition Zposition Zrotation Xrotation Yrotation 
				JOINT Foot_L
				{
					OFFSET 40.9854 0.0 -1.26872e-05
					CHANNELS 6 Xposition Yposition Zposition Zrotation Xrotation Yrotation 
					JOINT Toes_L
					{
						OFFSET 11.7543 0.0 0.0
						CHANNELS 6 Xposition Yposition Zposition Zrotation Xrotation Yrotation 
						End Site
						{
							OFFSET 0.0 0.0 0.0
						}
					}
				}
			}
		}
		JOINT UpperLeg_R
		{
			OFFSET -2.19251 6.46944 0.0
			CHANNELS 6 Xposition Yposition Zposition Zrotation Xrotation Yrotation 
			JOINT LowerLeg_R
			{
				OFFSET -39.0811 -0.00228153 -0.0401928
				CHANNELS 6 Xposition Yposition Zposition Zrotation Xrotation Yrotation 
				JOINT Foot_R
				{
					OFFSET -40.9854 0.0 0.0
					CHANNELS 6 Xposition Yposition Zposition Zrotation Xrotation Yrotation 
					JOINT Toes_R
					{
						OFFSET -11.7543 0.0 0.0
						CHANNELS 6 Xposition Yposition Zposition Zrotation Xrotation Yrotation 
						End Site
						{
							OFFSET 0.0 0.0 0.0
						}
					}
				}
			}
		}
	}
}
MOTION
Frames:	6
Frame Time:	0.0333333
0.000000 0.000000 0.000000 0.000000 0.000000 -0.000000 -2.548180 93.153500 -1.341700 86.825900 3.865850 3.536300 15.735700 0.000005 -0.000001 82.675800 87.063500 -88.109300 8.984550 -0.406207 -0.000000 -1.931440 -0.289604 -10.869700 16.377300 -0.000001 -0.000001 4.661020 -0.897194 -7.414930 6.456720 -0.000001 -0.000000 -12.562300 5.527490 -18.365700 12.994200 -0.242716 4.980390 -93.647600 10.434100 -70.608000 5.348090 -0.000007 -0.000001 -57.234000 -3.936840 2.399750 24.328600 0.000019 0.000005 12.125100 27.599500 -24.878400 22.291600 -0.000001 0.000005 3.386630 4.950860 8.347370 12.994500 -0.242716 -4.980390 93.788400 -6.750360 -60.605900 -5.348130 -0.000001 -0.000004 -61.310700 -62.401900 -107.559000 -24.328900 0.000322 -0.000009 -0.133978 -23.838000 -0.328934 -22.291500 -0.000108 -0.000004 36.425100 5.450660 -4.664310 -2.192480 -6.469440 -0.000000 -170.236000 -6.775100 -0.520035 39.081100 -0.000007 -0.000012 -0.028984 0.097897 16.492300 40.985400 -0.000006 -0.000013 -1.326560 19.246600 -68.104700 11.754300 -0.000000 0.000003 -0.001735 0.192973 -8.748030 -2.192510 6.469440 -0.000001 178.172000 9.607760 -176.912000 -39.081100 -0.002282 -0.040193 -0.004126 0.036366 11.595400 -40.985400 0.000008 0.000006 -6.840640 11.482800 -65.461100 -11.754300 -0.000006 -0.000006 -0.007756 0.253697 -6.270560
0.000000 0.000000 0.000000 0.000000 0.000000 -0.000000 -2.546030 93.167400 -1.335490 86.849900 4.064060 3.492450 15.735700 0.000005 -0.000001 82.534500 87.041300 -87.930600 8.984550 -0.406207 -0.000000 -1.890670 -0.314800 -10.795200 16.377300 -0.000001 -0.000001 4.719160 -1.016650 -7.334900 6.456720 -0.000001 -0.000000 -12.610800 5.394860 -18.368500 12.994200 -0.242716 4.980390 -93.648900 10.434800 -70.602700 5.348090 -0.000007 -0.000001 -57.393200 -4.014210 2.244930 24.328600 0.000019 0.000005 12.022600 27.747000 -24.581100 22.291600 -0.000001 0.000005 3.496320 4.945360 8.460460 12.994500 -0.242716 -4.980390 93.802000 -6.752540 -60.525600 -5.348130 -0.000001 -0.000004 -61.428100 -62.468300 -107.624000 -24.328900 0.000322 -0.000009 -0.181697 -23.813100 -0.447440 -22.291500 -0.000108 -0.000004 36.371000 5.454890 -4.815290 -2.192480 -6.469440 -0.000000 -170.268000 -6.725010 -0.537130 39.081100 -0.000007 -0.000012 -0.028629 0.097404 16.378700 40.985400 -0.000006 -0.000013 -1.324610 19.391000 -68.139800 11.754300 -0.000000 0.000003 -0.001654 0.191933 -8.790290 -2.192510 6.469440 -0.000001 178.142000 9.662130 -176.859000 -39.081100 -0.002282 -0.040193 -0.004822 0.040284 11.448100 -40.985400 0.000008 0.000006 -7.051640 11.355300 -65.398200 -11.754300 -0.000006 -0.000006 -0.007955 0.255334 -6.203740
0.000000 0.000000 0.000000 0.000000 0.000000 -0.000000 -2.538450 93.162900 -1.336570 86.882000 4.254120 3.418590 15.735700 0.000005 -0.000001 82.344200 87.022400 -87.704600 8.984550 -0.406207 -0.000000 -1.857420 -0.343847 -10.724200 16.377300 -0.000001 -0.000001 4.673970 -1.126660 -7.162080 6.456720 -0.000001 -0.000000 -12.569100 5.279010 -18.469300 12.994200 -0.242716 4.980390 -93.648400 10.443600 -70.620400 5.348090 -0.000007 -0.000001 -57.563200 -4.065370 2.167180 24.328600 0.000019 0.000005 11.966900 27.884800 -24.379300 22.291600 -0.000001 0.000005 3.516070 4.943150 8.505750 12.994500 -0.242716 -4.980390 93.784900 -6.712450 -60.490700 -5.348130 -0.000001 -0.000004 -61.671600 -62.605500 -107.859000 -24.328900 0.000322 -0.000009 -0.180932 -23.787400 -0.446001 -22.291500 -0.000108 -0.000004 36.190200 5.453790 -4.775570 -2.192480 -6.469440 -0.000000 -170.314000 -6.672090 -0.672874 39.081100 -0.000007 -0.000012 -0.029620 0.100588 16.407900 40.985400 -0.000006 -0.000013 -1.310530 19.472200 -68.106300 11.754300 -0.000000 0.000003 -0.001812 0.193971 -8.707440 -2.192510 6.469440 -0.000001 178.144000 9.673220 -176.942000 -39.081100 -0.002282 -0.040193 -0.003869 0.035417 11.498800 -40.985400 0.000008 0.000006 -6.901010 11.165500 -65.491800 -11.754300 -0.000006 -0.000006 -0.007750 0.253650 -6.272510
0.000000 0.000000 0.000000 0.000000 0.000000 -0.000000 -2.535730 93.174000 -1.331010 86.896900 4.398740 3.314740 15.735700 0.000005 -0.000001 82.168900 87.010900 -87.490900 8.984550 -0.406207 -0.000000 -1.838400 -0.369135 -10.647600 16.377300 -0.000001 -0.000001 4.571850 -1.200640 -6.936360 6.456720 -0.000001 -0.000000 -12.560400 5.252420 -18.536300 12.994200 -0.242716 4.980390 -93.652400 10.456000 -70.621600 5.348090 -0.000007 -0.000001 -57.749600 -4.020550 2.198780 24.328600 0.000019 0.000005 11.983400 27.928400 -24.378800 22.291600 -0.000001 0.000005 3.553570 4.940020 8.569800 12.994500 -0.242716 -4.980390 93.763400 -6.652750 -60.412500 -5.348130 -0.000001 -0.000004 -61.743800 -62.710400 -107.930000 -24.328900 0.000322 -0.000009 -0.190438 -23.735800 -0.470527 -22.291500 -0.000108 -0.000004 36.168500 5.450200 -4.646700 -2.192480 -6.469440 -0.000000 -170.348000 -6.671810 -0.764991 39.081100 -0.000007 -0.000012 -0.029879 0.102060 16.317400 40.985400 -0.000006 -0.000013 -1.308170 19.563500 -68.056000 11.754300 -0.000000 0.000003 -0.001713 0.192691 -8.759500 -2.192510 6.469440 -0.000001 178.134000 9.733450 -176.972000 -39.081100 -0.002282 -0.040193 -0.004118 0.037031 11.381400 -40.985400 0.000008 0.000006 -7.064420 11.086100 -65.440000 -11.754300 -0.000006 -0.000006 -0.008093 0.256457 -6.157880
0.000000 0.000000 0.000000 0.000000 0.000000 -0.000000 -2.535380 93.182200 -1.322300 86.882000 4.497930 3.197540 15.735700 0.000005 -0.000001 81.861300 87.018000 -87.147600 8.984550 -0.406207 -0.000000 -1.858570 -0.400954 -10.576900 16.377300 -0.000001 -0.000001 4.528750 -1.266690 -6.613870 6.456720 -0.000001 -0.000000 -12.597100 5.253270 -18.501700 12.994200 -0.242716 4.980390 -93.693100 10.523900 -70.536800 5.348090 -0.000007 -0.000001 -57.848100 -3.883300 2.302650 24.328600 0.000019 0.000005 11.980800 27.787300 -24.474600 22.291600 -0.000001 0.000005 3.476390 4.938230 8.606320 12.994500 -0.242716 -4.980390 93.724000 -6.574530 -60.382600 -5.348130 -0.000001 -0.000004 -61.987200 -62.765200 -108.051000 -24.328900 0.000322 -0.000009 -0.248384 -23.706500 -0.615192 -22.291500 -0.000108 -0.000004 36.209400 5.452670 -4.735410 -2.192480 -6.469440 -0.000000 -170.349000 -6.569690 -0.860387 39.081100 -0.000007 -0.000012 -0.030001 0.102913 16.252200 40.985400 -0.000006 -0.000013 -1.318990 19.587100 -68.066900 11.754300 -0.000000 0.000003 -0.001740 0.193045 -8.745080 -2.192510 6.469440 -0.000001 178.153000 9.845490 -176.994000 -39.081100 -0.002282 -0.040193 -0.004495 0.039535 11.204700 -40.985400 0.000008 0.000006 -7.140780 11.102100 -65.280600 -11.754300 -0.000006 -0.000006 -0.007756 0.253700 -6.270440
0.000000 0.000000 0.000000 0.000000 0.000000 -0.000000 -2.525990 93.194200 -1.288470 86.894800 4.566300 3.087670 15.735700 0.000005 -0.000001 82.033400 87.030700 -87.292300 8.984550 -0.406207 -0.000000 -1.880470 -0.380970 -10.521900 16.377300 -0.000001 -0.000001 4.450970 -1.390720 -6.226820 6.456720 -0.000001 -0.000000 -12.617000 5.123070 -18.383500 12.994200 -0.242716 4.980390 -93.755000 10.651400 -70.451100 5.348090 -0.000007 -0.000001 -57.858800 -3.566500 2.429780 24.328600 0.000019 0.000005 11.975600 27.638200 -24.572100 22.291600 -0.000001 0.000005 3.351120 4.949530 8.374850 12.994500 -0.242716 -4.980390 93.684300 -6.476940 -60.280300 -5.348130 -0.000001 -0.000004 -62.070400 -62.811600 -108.105000 -24.328900 0.000322 -0.000009 -0.263219 -23.662800 -0.653220 -22.291500 -0.000108 -0.000004 36.233100 5.451030 -4.675970 -2.192480 -6.469440 -0.000000 -170.386000 -6.525950 -0.902444 39.081100 -0.000007 -0.000012 -0.029554 0.102176 16.132300 40.985400 -0.000006 -0.000013 -1.335220 19.557600 -68.065800 11.754300 -0.000000 0.000003 -0.001640 0.191742 -8.798050 -2.192510 6.469440 -0.000001 178.119000 9.959150 -176.974000 -39.081100 -0.002282 -0.040193 -0.004936 0.042537 11.006400 -40.985400 0.000008 0.000006 -7.283660 11.176000 -65.174100 -11.754300 -0.000006 -0.000006 -0.007643 0.252764 -6.308680
